<mxfile host="Electron" agent="Mozilla/5.0 (Macintosh; Intel Mac OS X 10_15_7) AppleWebKit/537.36 (KHTML, like Gecko) draw.io/24.7.17 Chrome/128.0.6613.36 Electron/32.0.1 Safari/537.36" version="24.7.17">
  <diagram name="Page-1" id="X58M6MiDPaJugMH5M7qP">
    <mxGraphModel dx="2074" dy="854" grid="1" gridSize="10" guides="1" tooltips="1" connect="1" arrows="1" fold="1" page="1" pageScale="1" pageWidth="850" pageHeight="1100" math="0" shadow="0">
      <root>
        <mxCell id="0" />
        <mxCell id="1" parent="0" />
        <mxCell id="ANfQTLfDOmhFfFX1vW5f-10" style="edgeStyle=orthogonalEdgeStyle;rounded=0;orthogonalLoop=1;jettySize=auto;html=1;exitX=0.28;exitY=0.99;exitDx=0;exitDy=0;exitPerimeter=0;entryX=0.5;entryY=0;entryDx=0;entryDy=0;" edge="1" parent="1" source="hINtiIYNp804mXkB7DZi-2" target="hINtiIYNp804mXkB7DZi-12">
          <mxGeometry relative="1" as="geometry">
            <Array as="points">
              <mxPoint x="336" y="200" />
              <mxPoint x="120" y="200" />
            </Array>
          </mxGeometry>
        </mxCell>
        <mxCell id="hINtiIYNp804mXkB7DZi-2" value="api" style="aspect=fixed;sketch=0;html=1;dashed=0;whitespace=wrap;verticalLabelPosition=bottom;verticalAlign=top;fillColor=#2875E2;strokeColor=#ffffff;points=[[0.005,0.63,0],[0.1,0.2,0],[0.9,0.2,0],[0.5,0,0],[0.995,0.63,0],[0.72,0.99,0],[0.5,1,0],[0.28,0.99,0]];shape=mxgraph.kubernetes.icon2;prIcon=api" parent="1" vertex="1">
          <mxGeometry x="310" y="90" width="93.75" height="90" as="geometry" />
        </mxCell>
        <mxCell id="hINtiIYNp804mXkB7DZi-3" value="" style="aspect=fixed;sketch=0;html=1;dashed=0;whitespace=wrap;verticalLabelPosition=bottom;verticalAlign=top;fillColor=#2875E2;strokeColor=#ffffff;points=[[0.005,0.63,0],[0.1,0.2,0],[0.9,0.2,0],[0.5,0,0],[0.995,0.63,0],[0.72,0.99,0],[0.5,1,0],[0.28,0.99,0]];shape=mxgraph.kubernetes.icon2;prIcon=user" parent="1" vertex="1">
          <mxGeometry x="68.34" y="40" width="83.33" height="80" as="geometry" />
        </mxCell>
        <mxCell id="hINtiIYNp804mXkB7DZi-7" value="DB&lt;div&gt;Postgres&lt;/div&gt;" style="sketch=0;outlineConnect=0;fontColor=#232F3E;fillColor=#DD344C;strokeColor=#ffffff;dashed=0;verticalLabelPosition=bottom;verticalAlign=top;align=center;html=1;fontSize=12;fontStyle=0;aspect=fixed;shape=mxgraph.flowchart.database;resIcon=mxgraph.aws4.cloud_directory;strokeWidth=2;whiteSpace=wrap;" parent="1" vertex="1">
          <mxGeometry x="580" y="40" width="78" height="78" as="geometry" />
        </mxCell>
        <mxCell id="hINtiIYNp804mXkB7DZi-8" value="JWT" style="edgeStyle=orthogonalEdgeStyle;rounded=0;orthogonalLoop=1;jettySize=auto;html=1;exitX=0.992;exitY=0.5;exitDx=0;exitDy=0;exitPerimeter=0;entryX=0;entryY=0.5;entryDx=0;entryDy=0;entryPerimeter=0;startArrow=classic;startFill=1;" parent="1" source="hINtiIYNp804mXkB7DZi-2" target="hINtiIYNp804mXkB7DZi-7" edge="1">
          <mxGeometry relative="1" as="geometry" />
        </mxCell>
        <mxCell id="ANfQTLfDOmhFfFX1vW5f-2" style="edgeStyle=orthogonalEdgeStyle;rounded=0;orthogonalLoop=1;jettySize=auto;html=1;entryX=0;entryY=0.489;entryDx=0;entryDy=0;entryPerimeter=0;" edge="1" parent="1" source="hINtiIYNp804mXkB7DZi-3" target="hINtiIYNp804mXkB7DZi-2">
          <mxGeometry relative="1" as="geometry" />
        </mxCell>
        <mxCell id="ANfQTLfDOmhFfFX1vW5f-3" value="Endpoints" style="swimlane;horizontal=0;whiteSpace=wrap;html=1;" vertex="1" parent="1">
          <mxGeometry y="220" width="850" height="200" as="geometry" />
        </mxCell>
        <mxCell id="hINtiIYNp804mXkB7DZi-12" value="Authentication Endpoint" style="swimlane;fontStyle=0;childLayout=stackLayout;horizontal=1;startSize=30;horizontalStack=0;resizeParent=1;resizeParentMax=0;resizeLast=0;collapsible=1;marginBottom=0;whiteSpace=wrap;html=1;" parent="ANfQTLfDOmhFfFX1vW5f-3" vertex="1">
          <mxGeometry x="50" y="40" width="140" height="120" as="geometry" />
        </mxCell>
        <mxCell id="hINtiIYNp804mXkB7DZi-13" value="Sign Up" style="text;strokeColor=none;fillColor=none;align=left;verticalAlign=middle;spacingLeft=4;spacingRight=4;overflow=hidden;points=[[0,0.5],[1,0.5]];portConstraint=eastwest;rotatable=0;whiteSpace=wrap;html=1;" parent="hINtiIYNp804mXkB7DZi-12" vertex="1">
          <mxGeometry y="30" width="140" height="30" as="geometry" />
        </mxCell>
        <mxCell id="hINtiIYNp804mXkB7DZi-14" value="Login" style="text;strokeColor=none;fillColor=none;align=left;verticalAlign=middle;spacingLeft=4;spacingRight=4;overflow=hidden;points=[[0,0.5],[1,0.5]];portConstraint=eastwest;rotatable=0;whiteSpace=wrap;html=1;" parent="hINtiIYNp804mXkB7DZi-12" vertex="1">
          <mxGeometry y="60" width="140" height="30" as="geometry" />
        </mxCell>
        <mxCell id="hINtiIYNp804mXkB7DZi-15" value="JWT" style="text;strokeColor=none;fillColor=none;align=left;verticalAlign=middle;spacingLeft=4;spacingRight=4;overflow=hidden;points=[[0,0.5],[1,0.5]];portConstraint=eastwest;rotatable=0;whiteSpace=wrap;html=1;" parent="hINtiIYNp804mXkB7DZi-12" vertex="1">
          <mxGeometry y="90" width="140" height="30" as="geometry" />
        </mxCell>
        <mxCell id="ANfQTLfDOmhFfFX1vW5f-4" value="Actions" style="swimlane;horizontal=0;whiteSpace=wrap;html=1;" vertex="1" parent="1">
          <mxGeometry y="420" width="850" height="200" as="geometry" />
        </mxCell>
        <mxCell id="hINtiIYNp804mXkB7DZi-16" value="File Management" style="swimlane;fontStyle=0;childLayout=stackLayout;horizontal=1;startSize=30;horizontalStack=0;resizeParent=1;resizeParentMax=0;resizeLast=0;collapsible=1;marginBottom=0;whiteSpace=wrap;html=1;" parent="ANfQTLfDOmhFfFX1vW5f-4" vertex="1">
          <mxGeometry x="50" y="10" width="140" height="120" as="geometry" />
        </mxCell>
        <mxCell id="hINtiIYNp804mXkB7DZi-17" value="Upload (POST)" style="text;strokeColor=none;fillColor=none;align=left;verticalAlign=middle;spacingLeft=4;spacingRight=4;overflow=hidden;points=[[0,0.5],[1,0.5]];portConstraint=eastwest;rotatable=0;whiteSpace=wrap;html=1;" parent="hINtiIYNp804mXkB7DZi-16" vertex="1">
          <mxGeometry y="30" width="140" height="30" as="geometry" />
        </mxCell>
        <mxCell id="hINtiIYNp804mXkB7DZi-18" value="Image Analyze (POST)" style="text;strokeColor=none;fillColor=none;align=left;verticalAlign=middle;spacingLeft=4;spacingRight=4;overflow=hidden;points=[[0,0.5],[1,0.5]];portConstraint=eastwest;rotatable=0;whiteSpace=wrap;html=1;" parent="hINtiIYNp804mXkB7DZi-16" vertex="1">
          <mxGeometry y="60" width="140" height="30" as="geometry" />
        </mxCell>
        <mxCell id="hINtiIYNp804mXkB7DZi-19" value="Retrieve (GET)" style="text;strokeColor=none;fillColor=none;align=left;verticalAlign=middle;spacingLeft=4;spacingRight=4;overflow=hidden;points=[[0,0.5],[1,0.5]];portConstraint=eastwest;rotatable=0;whiteSpace=wrap;html=1;" parent="hINtiIYNp804mXkB7DZi-16" vertex="1">
          <mxGeometry y="90" width="140" height="30" as="geometry" />
        </mxCell>
        <mxCell id="hINtiIYNp804mXkB7DZi-25" value="List all (GET)&lt;div&gt;[Paginated]&lt;/div&gt;" style="rounded=0;whiteSpace=wrap;html=1;" parent="ANfQTLfDOmhFfFX1vW5f-4" vertex="1">
          <mxGeometry x="50" y="130" width="140" height="40" as="geometry" />
        </mxCell>
      </root>
    </mxGraphModel>
  </diagram>
</mxfile>
